name p12_grf_mean_speed_1.4
datacolumns 13
datarows 28
range 0.0000000000 0.2700000000
endheader
time	grf_x_l_mean	grf_x_l_var	grf_y_l_mean	grf_y_l_var	grf_z_l_mean	grf_z_l_var	grf_x_r_mean	grf_x_r_var	grf_y_r_mean	grf_y_r_var	grf_z_r_mean	grf_z_r_var
0.0000000000	90.6051617298	1.0000000000	586.9101309909	1.0000000000	0.0000000000	0.0000000000	5.6087106295	1.0000000000	11.0641116558	1.0000000000	0.0000000000	0.0000000000
0.0100000000	100.8042915187	1.0000000000	574.5469191132	1.0000000000	0.0000000000	0.0000000000	8.6652589097	1.0000000000	39.4794976364	1.0000000000	0.0000000000	0.0000000000
0.0200000000	110.3773594157	1.0000000000	551.2912597662	1.0000000000	0.0000000000	0.0000000000	11.1632201961	1.0000000000	84.3909113666	1.0000000000	0.0000000000	0.0000000000
0.0300000000	118.2168600181	1.0000000000	516.6833402315	1.0000000000	0.0000000000	0.0000000000	9.7171508138	1.0000000000	143.5477807535	1.0000000000	0.0000000000	0.0000000000
0.0400000000	122.0400035604	1.0000000000	470.4859981449	1.0000000000	0.0000000000	0.0000000000	-0.0876069087	1.0000000000	209.1963214016	1.0000000000	0.0000000000	0.0000000000
0.0500000000	119.8432614460	1.0000000000	413.6175766086	1.0000000000	0.0000000000	0.0000000000	-16.8375226274	1.0000000000	271.4589855387	1.0000000000	0.0000000000	0.0000000000
0.0600000000	111.6687300449	1.0000000000	348.9332518230	1.0000000000	0.0000000000	0.0000000000	-34.1990217653	1.0000000000	323.2767881969	1.0000000000	0.0000000000	0.0000000000
0.0700000000	97.7095504875	1.0000000000	280.8103433517	1.0000000000	0.0000000000	0.0000000000	-49.9305617231	1.0000000000	362.8529066374	1.0000000000	0.0000000000	0.0000000000
0.0800000000	78.1137592360	1.0000000000	214.0746575054	1.0000000000	0.0000000000	0.0000000000	-64.8414022422	1.0000000000	393.9610939909	1.0000000000	0.0000000000	0.0000000000
0.0900000000	56.5050477771	1.0000000000	153.5963615277	1.0000000000	0.0000000000	0.0000000000	-77.9268089140	1.0000000000	422.7348069973	1.0000000000	0.0000000000	0.0000000000
0.1000000000	36.9872097713	1.0000000000	103.3590172117	1.0000000000	0.0000000000	0.0000000000	-88.1861862991	1.0000000000	453.2392136147	1.0000000000	0.0000000000	0.0000000000
0.1100000000	20.7902298474	1.0000000000	64.8042648427	1.0000000000	0.0000000000	0.0000000000	-95.8087247527	1.0000000000	485.4303287403	1.0000000000	0.0000000000	0.0000000000
0.1200000000	9.4613405830	1.0000000000	36.6111262391	1.0000000000	0.0000000000	0.0000000000	-100.3804866564	1.0000000000	516.6905836387	1.0000000000	0.0000000000	0.0000000000
0.1300000000	3.4919589401	1.0000000000	17.1628625078	1.0000000000	0.0000000000	0.0000000000	-100.4608974520	1.0000000000	544.5932003963	1.0000000000	0.0000000000	0.0000000000
0.1400000000	0.7573260165	1.0000000000	5.4403977997	1.0000000000	0.0000000000	0.0000000000	-97.0878953797	1.0000000000	567.4640420239	1.0000000000	0.0000000000	0.0000000000
0.1500000000	0.0000000000	1.0000000000	0.0000000000	1.0000000000	0.0000000000	0.0000000000	-92.0482964494	1.0000000000	583.5666467758	1.0000000000	0.0000000000	0.0000000000
0.1600000000	0.0000000000	1.0000000000	0.0000000000	1.0000000000	0.0000000000	0.0000000000	-85.1505514219	1.0000000000	591.6056539412	1.0000000000	0.0000000000	0.0000000000
0.1700000000	0.0000000000	1.0000000000	0.0000000000	1.0000000000	0.0000000000	0.0000000000	-76.8295993609	1.0000000000	591.5288163347	1.0000000000	0.0000000000	0.0000000000
0.1800000000	0.0000000000	1.0000000000	0.0000000000	1.0000000000	0.0000000000	0.0000000000	-68.9052694514	1.0000000000	584.0656601580	1.0000000000	0.0000000000	0.0000000000
0.1900000000	0.0000000000	1.0000000000	0.0000000000	1.0000000000	0.0000000000	0.0000000000	-61.5126212160	1.0000000000	569.7518038670	1.0000000000	0.0000000000	0.0000000000
0.2000000000	0.0000000000	1.0000000000	0.0000000000	1.0000000000	0.0000000000	0.0000000000	-54.3029606417	1.0000000000	549.3970073728	1.0000000000	0.0000000000	0.0000000000
0.2100000000	0.0000000000	1.0000000000	0.0000000000	1.0000000000	0.0000000000	0.0000000000	-48.0033037019	1.0000000000	524.6592176000	1.0000000000	0.0000000000	0.0000000000
0.2200000000	0.0000000000	1.0000000000	0.0000000000	1.0000000000	0.0000000000	0.0000000000	-42.4599511318	1.0000000000	497.2732875128	1.0000000000	0.0000000000	0.0000000000
0.2300000000	2.3231578458	1.0000000000	0.2217474876	1.0000000000	0.0000000000	0.0000000000	-36.9161727851	1.0000000000	468.9187757761	1.0000000000	0.0000000000	0.0000000000
0.2400000000	2.3116772189	1.0000000000	0.1917675280	1.0000000000	0.0000000000	0.0000000000	-31.4543287941	1.0000000000	441.4269203702	1.0000000000	0.0000000000	0.0000000000
0.2500000000	1.9625736251	1.0000000000	0.0778147980	1.0000000000	0.0000000000	0.0000000000	-26.4333274115	1.0000000000	416.1758118078	1.0000000000	0.0000000000	0.0000000000
0.2600000000	2.1770161616	1.0000000000	0.1580022652	1.0000000000	0.0000000000	0.0000000000	-21.4313733273	1.0000000000	393.6777866524	1.0000000000	0.0000000000	0.0000000000
0.2700000000	2.4402291622	1.0000000000	0.2266943988	1.0000000000	0.0000000000	0.0000000000	-16.6876369892	1.0000000000	374.1643927458	1.0000000000	0.0000000000	0.0000000000
